<svg height="84" viewBox="0 0 84 84" width="84" xmlns="http://www.w3.org/2000/svg"><g fill="#ff4141" fill-rule="evenodd" transform="translate(15 16)"><path d="m16.625 49.5339506c-1.3832562 0-2.507716-1.212037-2.507716-2.7006173 0-1.4885802 1.1244598-2.7006173 2.507716-2.7006173s2.507716 1.2120371 2.507716 2.7006173c0 1.4885803-1.1244598 2.7006173-2.507716 2.7006173m0-7.5617284c-2.4886574 0-4.5138889 2.1810185-4.5138889 4.8611111s2.0252315 4.8611111 4.5138889 4.8611111 4.5138889-2.1810185 4.5138889-4.8611111-2.0252315-4.8611111-4.5138889-4.8611111"/><path d="m42.3194444 49.5339506c-1.3832561 0-2.507716-1.212037-2.507716-2.7006173 0-1.4885802 1.1244599-2.7006173 2.507716-2.7006173 1.3832562 0 2.5077161 1.2120371 2.5077161 2.7006173 0 1.4885803-1.1244599 2.7006173-2.5077161 2.7006173m0-7.5617284c-2.4886574 0-4.5138888 2.1810185-4.5138888 4.8611111s2.0252314 4.8611111 4.5138888 4.8611111c2.4886575 0 4.5138889-2.1810185 4.5138889-4.8611111s-2.0252314-4.8611111-4.5138889-4.8611111"/><path d="m13.8234375 30.9129598-3.3885417-19.5906531h38.2395834l-2.2729167 10.6985736c-.8635417 4.0640953-4.3885417 7.0897147-8.5708333 7.3570758zm34.6166667-8.4667792 2.559375-13.18843848h-40.921875l-1.42812503-8.25825826h-7.65v2.06456456h5.89270833l4.9145833 28.40944068c.7739584 4.4739114 4.659375 7.7204392 9.240625 7.7204392h25.7854167v-2.0645646h-25.7854167c-2.9052083 0-5.45-1.6795232-6.6166666-4.1859046l23.534375-1.5050676c5.1125-.3272335 9.4197916-4.0248686 10.475-8.9922109z"/></g></svg>