<svg height="84" viewBox="0 0 84 84" width="84" xmlns="http://www.w3.org/2000/svg"><g fill="#ff4141" fill-rule="evenodd" transform="translate(16 25)"><path d="m6.25013021 0v6.34615385h-6.25013021v27.49999995h43.7509115v-6.3461538h6.2490885v-27.5zm2.08337674 2.11644231h39.58415805v23.26817309h-4.1667535v-19.03846155h-35.41740455zm-6.2511719 29.61538459h39.58415805v-23.27028844h-39.58415805z"/><path d="m21.9230769 15.1648352c2.8781868 0 5.2197802 2.3415934 5.2197802 5.2197802s-2.3415934 5.2197802-5.2197802 5.2197802-5.2197802-2.3415934-5.2197802-5.2197802 2.3415934-5.2197802 5.2197802-5.2197802m0 12.5274725c4.0286264 0 7.3076923-3.278022 7.3076923-7.3076923s-3.2790659-7.3076923-7.3076923-7.3076923-7.3076923 3.278022-7.3076923 7.3076923 3.2790659 7.3076923 7.3076923 7.3076923"/></g></svg>