<svg height="31" viewBox="0 0 49 31" width="49" xmlns="http://www.w3.org/2000/svg"><g fill="#ff4141" transform="translate(.5 .416184)"><path d="m47.6 14.4c-.4-.6-10.5-14.4-23.6-14.4s-23.1 13.8-23.6 14.4l-.4.6.4.6c.4.6 10.5 14.4 23.6 14.4s23.1-13.8 23.6-14.4l.4-.6zm-23.6 13.6c-10.6 0-19.4-10.4-21.5-13 2.1-2.6 10.9-13 21.5-13s19.4 10.4 21.5 13c-2.1 2.6-10.9 13-21.5 13z"/><path d="m24 7c-4.4 0-8 3.6-8 8s3.6 8 8 8 8-3.6 8-8-3.6-8-8-8zm0 14c-3.3 0-6-2.7-6-6s2.7-6 6-6 6 2.7 6 6-2.7 6-6 6z"/></g></svg>